<svg xmlns="http://www.w3.org/2000/svg" xmlns:xlink="http://www.w3.org/1999/xlink" id="svg8" width="264.58334mm" height="264.58334mm" version="1.1" viewBox="0 0 264.58334 264.58334"><defs id="defs2"><radialGradient xlink:href="#c" id="radialGradient1064" cx="17.294085" cy="104.77726" r="132.29167" fx="17.294085" fy="104.77726" gradientTransform="matrix(-1.20662 .37557 -.16812 -.54014 80.428 128.909)" gradientUnits="userSpaceOnUse"/><radialGradient xlink:href="#a-4" id="radialGradient1070" cx="-40.919666" cy="-359.92737" r="132.29167" fx="-40.919666" fy="-359.92737" gradientTransform="matrix(0 -1.59644 1.69379 -.0001 685.97 287.636)" gradientUnits="userSpaceOnUse"/><radialGradient xlink:href="#d" id="radialGradient1104" cx="349.52673" cy="219.49358" r="132.29167" fx="349.52673" fy="219.49358" gradientTransform="matrix(-1.22991 .34687 -.2499 -.8861 746.83 265.301)" gradientUnits="userSpaceOnUse"/><radialGradient xlink:href="#linearGradient2485" id="radialGradient1167" cx="43.638363" cy="-401.23001" r="132.29167" fx="43.638363" fy="-401.23001" gradientTransform="matrix(.33138 -.57094 .74331 .4314 428.807 526.897)" gradientUnits="userSpaceOnUse"/><linearGradient id="d"><stop id="stop848" offset="0" stop-color="#ff005f"/><stop id="stop850" offset="1" stop-color="#fc01d8"/></linearGradient><linearGradient id="c"><stop id="stop853" offset="0" stop-color="#780cff"/><stop id="stop1106" offset="0.19437101" stop-color="#780cff" style="stop-color:#780cff;stop-opacity:1"/><stop id="stop855" offset="1" stop-color="#820bff" stop-opacity="0"/></linearGradient><linearGradient id="a-4"><stop id="stop14" offset="0" stop-color="#fd5" style="stop-color:#fc0;stop-opacity:1"/><stop id="stop16" offset="0.12416067" stop-color="#fd5" style="stop-color:#fc0;stop-opacity:1"/><stop id="stop2487" offset="0.56719624" stop-color="#fd5" style="stop-color:#fe4a05;stop-opacity:1"/><stop id="stop18" offset="0.69420281" stop-color="#ff543e" style="stop-color:#ff0f3f;stop-opacity:1"/><stop id="stop2515" offset="1" stop-color="#ff543e" style="stop-color:#fe0657;stop-opacity:0"/></linearGradient><linearGradient id="linearGradient2485"><stop id="stop2481" offset="0" style="stop-color:#fc0;stop-opacity:1"/><stop id="stop2483" offset="1" style="stop-color:#fc0;stop-opacity:0"/></linearGradient></defs><g id="layer1" transform="translate(-6.048 -68.036)"><g id="g1111"><path id="path1092" d="M138.352 68.036c-35.929 0-40.438.157-54.55.798-14.083.645-23.696 2.873-32.108 6.142-8.7 3.376-16.082 7.893-23.435 15.244-7.359 7.347-11.879 14.723-15.269 23.415-3.28 8.408-5.512 18.017-6.146 32.084-.631 14.101-.796 18.61-.796 54.512 0 35.901.16 40.393.799 54.494.648 14.073 2.877 23.68 6.146 32.085 3.382 8.694 7.902 16.07 15.258 23.418 7.35 7.353 14.731 11.88 23.427 15.257 8.417 3.27 18.033 5.497 32.114 6.142 14.111.641 18.617.798 54.543.798 35.931 0 40.427-.157 54.538-.798 14.084-.645 23.708-2.873 32.125-6.142 8.698-3.376 16.068-7.904 23.419-15.257 7.359-7.348 11.879-14.724 15.269-23.415 3.252-8.408 5.484-18.017 6.146-32.085.634-14.1.799-18.596.799-54.497 0-35.902-.165-40.408-.8-54.509-.66-14.073-2.893-23.68-6.145-32.085-3.39-8.694-7.91-16.07-15.27-23.417-7.358-7.354-14.717-11.87-23.426-15.244-8.434-3.27-18.053-5.497-32.136-6.142-14.112-.641-18.604-.798-54.544-.798zm-11.868 23.822c3.522-.005 7.452 0 11.868 0 35.322 0 39.508.127 53.457.76 12.899.59 19.9 2.743 24.563 4.553 6.173 2.396 10.575 5.26 15.202 9.887 4.63 4.627 7.497 9.033 9.9 15.202 1.81 4.655 3.969 11.65 4.556 24.54.634 13.935.772 18.12.772 53.4s-.138 39.466-.772 53.401c-.59 12.89-2.745 19.885-4.556 24.54-2.398 6.168-5.27 10.561-9.9 15.185-4.63 4.627-9.026 7.491-15.203 9.887-4.657 1.818-11.663 3.966-24.562 4.555-13.946.634-18.135.771-53.457.771-35.325 0-39.512-.137-53.458-.77-12.898-.596-19.899-2.75-24.565-4.559-6.174-2.396-10.583-5.26-15.214-9.887-4.63-4.627-7.496-9.022-9.9-15.194-1.81-4.654-3.968-11.65-4.555-24.539-.634-13.935-.761-18.121-.761-53.423 0-35.301.127-39.465.76-53.401.59-12.889 2.746-19.884 4.556-24.544 2.398-6.17 5.27-10.576 9.9-15.203 4.63-4.626 9.04-7.49 15.214-9.892 4.663-1.818 11.667-3.966 24.565-4.558 12.204-.55 16.934-.716 41.59-.744zm82.485 21.95c-8.765 0-15.876 7.097-15.876 15.858 0 8.758 7.111 15.863 15.876 15.863 8.764 0 15.875-7.105 15.875-15.863s-7.111-15.863-15.875-15.863zm-70.617 18.535c-37.52 0-67.938 30.397-67.938 67.888 0 37.49 30.419 67.873 67.938 67.873 37.519 0 67.927-30.382 67.927-67.873s-30.411-67.888-67.93-67.888zm0 23.823c24.353 0 44.097 19.727 44.097 44.065 0 24.334-19.744 44.065-44.097 44.065-24.356 0-44.098-19.73-44.098-44.065 0-24.338 19.742-44.065 44.098-44.065z" style="fill:url(#radialGradient1104);fill-opacity:1;stroke-width:.358224"/><path id="path1068" d="M138.352 68.036c-35.929 0-40.438.157-54.55.798-14.083.645-23.696 2.873-32.108 6.142-8.7 3.376-16.082 7.893-23.435 15.244-7.359 7.347-11.879 14.723-15.269 23.415-3.28 8.408-5.512 18.017-6.146 32.084-.631 14.101-.796 18.61-.796 54.512 0 35.901.16 40.393.799 54.494.648 14.073 2.877 23.68 6.146 32.085 3.382 8.694 7.902 16.07 15.258 23.418 7.35 7.353 14.731 11.88 23.427 15.257 8.417 3.27 18.033 5.497 32.114 6.142 14.111.641 18.617.798 54.543.798 35.931 0 40.427-.157 54.538-.798 14.084-.645 23.708-2.873 32.125-6.142 8.698-3.376 16.068-7.904 23.419-15.257 7.359-7.348 11.879-14.724 15.269-23.415 3.252-8.408 5.484-18.017 6.146-32.085.634-14.1.799-18.596.799-54.497 0-35.902-.165-40.408-.8-54.509-.66-14.073-2.893-23.68-6.145-32.085-3.39-8.694-7.91-16.07-15.27-23.417-7.358-7.354-14.717-11.87-23.426-15.244-8.434-3.27-18.053-5.497-32.136-6.142-14.112-.641-18.604-.798-54.544-.798zm-11.868 23.822c3.522-.005 7.452 0 11.868 0 35.322 0 39.508.127 53.457.76 12.899.59 19.9 2.743 24.563 4.553 6.173 2.396 10.575 5.26 15.202 9.887 4.63 4.627 7.497 9.033 9.9 15.202 1.81 4.655 3.969 11.65 4.556 24.54.634 13.935.772 18.12.772 53.4s-.138 39.466-.772 53.401c-.59 12.89-2.745 19.885-4.556 24.54-2.398 6.168-5.27 10.561-9.9 15.185-4.63 4.627-9.026 7.491-15.203 9.887-4.657 1.818-11.663 3.966-24.562 4.555-13.946.634-18.135.771-53.457.771-35.325 0-39.512-.137-53.458-.77-12.898-.596-19.899-2.75-24.565-4.559-6.174-2.396-10.583-5.26-15.214-9.887-4.63-4.627-7.496-9.022-9.9-15.194-1.81-4.654-3.968-11.65-4.555-24.539-.634-13.935-.761-18.121-.761-53.423 0-35.301.127-39.465.76-53.401.59-12.889 2.746-19.884 4.556-24.544 2.398-6.17 5.27-10.576 9.9-15.203 4.63-4.626 9.04-7.49 15.214-9.892 4.663-1.818 11.667-3.966 24.565-4.558 12.204-.55 16.934-.716 41.59-.744zm82.485 21.95c-8.765 0-15.876 7.097-15.876 15.858 0 8.758 7.111 15.863 15.876 15.863 8.764 0 15.875-7.105 15.875-15.863s-7.111-15.863-15.875-15.863zm-70.617 18.535c-37.52 0-67.938 30.397-67.938 67.888 0 37.49 30.419 67.873 67.938 67.873 37.519 0 67.927-30.382 67.927-67.873s-30.411-67.888-67.93-67.888zm0 23.823c24.353 0 44.097 19.727 44.097 44.065 0 24.334-19.744 44.065-44.097 44.065-24.356 0-44.098-19.73-44.098-44.065 0-24.338 19.742-44.065 44.098-44.065z" style="fill:url(#radialGradient1070);fill-opacity:1;stroke-width:.358224"/><path id="path28" d="M138.352 68.036c-35.929 0-40.438.157-54.55.798-14.083.645-23.696 2.873-32.108 6.142-8.7 3.376-16.082 7.893-23.435 15.244-7.359 7.347-11.879 14.723-15.269 23.415-3.28 8.408-5.512 18.017-6.146 32.084-.631 14.101-.796 18.61-.796 54.512 0 35.901.16 40.393.799 54.494.648 14.073 2.877 23.68 6.146 32.085 3.382 8.694 7.902 16.07 15.258 23.418 7.35 7.353 14.731 11.88 23.427 15.257 8.417 3.27 18.033 5.497 32.114 6.142 14.111.641 18.617.798 54.543.798 35.931 0 40.427-.157 54.538-.798 14.084-.645 23.708-2.873 32.125-6.142 8.698-3.376 16.068-7.904 23.419-15.257 7.359-7.348 11.879-14.724 15.269-23.415 3.252-8.408 5.484-18.017 6.146-32.085.634-14.1.799-18.596.799-54.497 0-35.902-.165-40.408-.8-54.509-.66-14.073-2.893-23.68-6.145-32.085-3.39-8.694-7.91-16.07-15.27-23.417-7.358-7.354-14.717-11.87-23.426-15.244-8.434-3.27-18.053-5.497-32.136-6.142-14.112-.641-18.604-.798-54.544-.798zm-11.868 23.822c3.522-.005 7.452 0 11.868 0 35.322 0 39.508.127 53.457.76 12.899.59 19.9 2.743 24.563 4.553 6.173 2.396 10.575 5.26 15.202 9.887 4.63 4.627 7.497 9.033 9.9 15.202 1.81 4.655 3.969 11.65 4.556 24.54.634 13.935.772 18.12.772 53.4s-.138 39.466-.772 53.401c-.59 12.89-2.745 19.885-4.556 24.54-2.398 6.168-5.27 10.561-9.9 15.185-4.63 4.627-9.026 7.491-15.203 9.887-4.657 1.818-11.663 3.966-24.562 4.555-13.946.634-18.135.771-53.457.771-35.325 0-39.512-.137-53.458-.77-12.898-.596-19.899-2.75-24.565-4.559-6.174-2.396-10.583-5.26-15.214-9.887-4.63-4.627-7.496-9.022-9.9-15.194-1.81-4.654-3.968-11.65-4.555-24.539-.634-13.935-.761-18.121-.761-53.423 0-35.301.127-39.465.76-53.401.59-12.889 2.746-19.884 4.556-24.544 2.398-6.17 5.27-10.576 9.9-15.203 4.63-4.626 9.04-7.49 15.214-9.892 4.663-1.818 11.667-3.966 24.565-4.558 12.204-.55 16.934-.716 41.59-.744zm82.485 21.95c-8.765 0-15.876 7.097-15.876 15.858 0 8.758 7.111 15.863 15.876 15.863 8.764 0 15.875-7.105 15.875-15.863s-7.111-15.863-15.875-15.863zm-70.617 18.535c-37.52 0-67.938 30.397-67.938 67.888 0 37.49 30.419 67.873 67.938 67.873 37.519 0 67.927-30.382 67.927-67.873s-30.411-67.888-67.93-67.888zm0 23.823c24.353 0 44.097 19.727 44.097 44.065 0 24.334-19.744 44.065-44.097 44.065-24.356 0-44.098-19.73-44.098-44.065 0-24.338 19.742-44.065 44.098-44.065z" style="fill:url(#radialGradient1064);fill-opacity:1;stroke-width:.358224"/><path id="path1165" d="M138.352 68.036c-35.929 0-40.438.157-54.55.798-14.083.645-23.696 2.873-32.108 6.142-8.7 3.376-16.082 7.893-23.435 15.244-7.359 7.347-11.879 14.723-15.269 23.415-3.28 8.408-5.512 18.017-6.146 32.084-.631 14.101-.796 18.61-.796 54.512 0 35.901.16 40.393.799 54.494.648 14.073 2.877 23.68 6.146 32.085 3.382 8.694 7.902 16.07 15.258 23.418 7.35 7.353 14.731 11.88 23.427 15.257 8.417 3.27 18.033 5.497 32.114 6.142 14.111.641 18.617.798 54.543.798 35.931 0 40.427-.157 54.538-.798 14.084-.645 23.708-2.873 32.125-6.142 8.698-3.376 16.068-7.904 23.419-15.257 7.359-7.348 11.879-14.724 15.269-23.415 3.252-8.408 5.484-18.017 6.146-32.085.634-14.1.799-18.596.799-54.497 0-35.902-.165-40.408-.8-54.509-.66-14.073-2.893-23.68-6.145-32.085-3.39-8.694-7.91-16.07-15.27-23.417-7.358-7.354-14.717-11.87-23.426-15.244-8.434-3.27-18.053-5.497-32.136-6.142-14.112-.641-18.604-.798-54.544-.798zm-11.868 23.822c3.522-.005 7.452 0 11.868 0 35.322 0 39.508.127 53.457.76 12.899.59 19.9 2.743 24.563 4.553 6.173 2.396 10.575 5.26 15.202 9.887 4.63 4.627 7.497 9.033 9.9 15.202 1.81 4.655 3.969 11.65 4.556 24.54.634 13.935.772 18.12.772 53.4s-.138 39.466-.772 53.401c-.59 12.89-2.745 19.885-4.556 24.54-2.398 6.168-5.27 10.561-9.9 15.185-4.63 4.627-9.026 7.491-15.203 9.887-4.657 1.818-11.663 3.966-24.562 4.555-13.946.634-18.135.771-53.457.771-35.325 0-39.512-.137-53.458-.77-12.898-.596-19.899-2.75-24.565-4.559-6.174-2.396-10.583-5.26-15.214-9.887-4.63-4.627-7.496-9.022-9.9-15.194-1.81-4.654-3.968-11.65-4.555-24.539-.634-13.935-.761-18.121-.761-53.423 0-35.301.127-39.465.76-53.401.59-12.889 2.746-19.884 4.556-24.544 2.398-6.17 5.27-10.576 9.9-15.203 4.63-4.626 9.04-7.49 15.214-9.892 4.663-1.818 11.667-3.966 24.565-4.558 12.204-.55 16.934-.716 41.59-.744zm82.485 21.95c-8.765 0-15.876 7.097-15.876 15.858 0 8.758 7.111 15.863 15.876 15.863 8.764 0 15.875-7.105 15.875-15.863s-7.111-15.863-15.875-15.863zm-70.617 18.535c-37.52 0-67.938 30.397-67.938 67.888 0 37.49 30.419 67.873 67.938 67.873 37.519 0 67.927-30.382 67.927-67.873s-30.411-67.888-67.93-67.888zm0 23.823c24.353 0 44.097 19.727 44.097 44.065 0 24.334-19.744 44.065-44.097 44.065-24.356 0-44.098-19.73-44.098-44.065 0-24.338 19.742-44.065 44.098-44.065z" style="fill:url(#radialGradient1167);fill-opacity:1;stroke-width:.358224"/></g></g><style>.st0{clip-path:url(#SVGID_00000130622006894310625020000004174188710254592903_)}.st1{clip-path:url(#SVGID_00000051351915170632626820000013518756960088417417_)}.st2{clip-path:url(#SVGID_00000021817509185890717940000001189774779219633321_)}</style></svg>